<?xml version="1.0" encoding="UTF-8" standalone="no"?>
<!-- Created with Inkscape (http://www.inkscape.org/) -->

<svg
   width="139.17702mm"
   height="108.97554mm"
   viewBox="0 0 139.17702 108.97554"
   version="1.1"
   id="svg1"
   xmlns:inkscape="http://www.inkscape.org/namespaces/inkscape"
   xmlns:sodipodi="http://sodipodi.sourceforge.net/DTD/sodipodi-0.dtd"
   xmlns="http://www.w3.org/2000/svg"
   xmlns:svg="http://www.w3.org/2000/svg">
  <sodipodi:namedview
     id="namedview1"
     pagecolor="#ffffff"
     bordercolor="#000000"
     borderopacity="0.25"
     inkscape:showpageshadow="2"
     inkscape:pageopacity="0.0"
     inkscape:pagecheckerboard="0"
     inkscape:deskcolor="#d1d1d1"
     inkscape:document-units="mm">
    <inkscape:page
       x="0"
       y="0"
       width="139.17702"
       height="108.97554"
       id="page2"
       margin="0"
       bleed="0" />
  </sodipodi:namedview>
  <defs
     id="defs1" />
  <g
     inkscape:label="Layer 1"
     inkscape:groupmode="layer"
     id="layer1"
     transform="translate(-83.593527,-47.50731)">
    <circle
       style="fill:#ffffff;stroke:#000000;stroke-width:0.264583"
       id="path1"
       cx="154.81125"
       cy="101.35125"
       r="44.921249"
       inkscape:export-filename="ctrig.svg"
       inkscape:export-xdpi="96"
       inkscape:export-ydpi="96" />
    <path
       style="fill:#ffdd55;stroke:none;stroke-width:0.992177"
       d="m 646.38395,323.46868 58.51301,-58.51931 3.87114,3.70156 c 5.96218,5.70097 17.77478,21.95379 23.77036,32.70537 12.0847,21.67091 19.04552,45.42564 21.08344,71.95015 l 0.66702,8.68154 h -83.20899 -83.20899 z"
       id="path5"
       transform="scale(0.26458333)" />
    <path
       style="fill:#ffdd55;stroke:none;stroke-width:0.994016;stroke-dasharray:none"
       d="m 586.37637,297.40178 v -83.09163 l 4.71284,0.0194 c 7.69853,0.0316 25.13164,2.65096 36.12043,5.42708 25.32717,6.39847 51.98642,20.65577 69.43808,37.13532 l 6.91623,6.53097 -58.59379,58.53526 -58.59379,58.53527 z"
       id="path6"
       transform="scale(0.26458333)" />
    <path
       style="fill:#ff9955;stroke:none;stroke-width:0.992177"
       d="m 525.4281,321.53591 c -51.58927,-51.59491 -58.31095,-58.66326 -57.13434,-60.08099 2.76939,-3.33691 16.70458,-14.34827 24.81801,-19.61079 16.9488,-10.99329 38.65596,-20.04613 57.54624,-23.99931 8.40236,-1.75837 32.39574,-4.21149 33.21162,-3.39562 0.29362,0.29363 0.41966,37.66496 0.28008,83.0474 l -0.25378,82.51355 z"
       id="path7"
       transform="scale(0.26458333)" />
    <path
       style="fill:#ff9955;stroke:none;stroke-width:0.992177"
       d="m 416.98581,371.32209 c 1.44874,-27.16088 11.62287,-57.34459 27.23307,-80.7927 5.87155,-8.81966 19.56344,-25.61824 20.88047,-25.61824 0.40363,0 27.07332,26.34229 59.26598,58.53842 l 58.53211,58.53842 h -83.24027 -83.24028 z"
       id="path8"
       transform="scale(0.26458333)" />
    <path
       style="fill:#d35f5f;stroke:none;stroke-width:0.992177"
       d="m 458.77962,494.61142 c -21.69448,-24.5577 -35.61651,-54.5345 -40.55991,-87.3333 -0.82161,-5.45126 -1.49647,-12.92513 -1.49969,-16.60858 l -0.006,-6.6972 h 83.09164 83.09163 l -58.53211,58.53842 c -32.19266,32.19614 -58.83956,58.53842 -59.21532,58.53842 -0.37577,0 -3.24245,-2.89699 -6.37039,-6.43776 z"
       id="path9"
       transform="scale(0.26458333)" />
    <path
       style="fill:#d35f5f;stroke:none;stroke-width:0.992177"
       d="m 567.52502,550.96696 c -25.57797,-2.69331 -53.80839,-12.97821 -75.8123,-27.61991 -8.70228,-5.79061 -23.46209,-17.9418 -24.07469,-19.81979 -0.17844,-0.54699 26.01822,-27.33435 58.21478,-59.52744 l 58.53921,-58.5329 v 83.09163 83.09164 l -6.69719,-0.15879 c -3.68346,-0.0873 -8.25987,-0.32333 -10.16981,-0.52444 z"
       id="path10"
       transform="scale(0.26458333)" />
    <path
       style="fill:#800000;stroke:none;stroke-width:0.992177"
       d="M 586.37637,468.55645 V 385.4627 l 58.78647,58.82923 58.78646,58.82924 -4.4648,3.96165 c -27.03348,23.9871 -57.26306,38.21404 -91.55659,43.08928 -5.57783,0.79295 -12.70876,1.44991 -15.84652,1.45991 l -5.70502,0.0182 z"
       id="path11"
       transform="scale(0.26458333)" />
    <path
       style="fill:#800000;stroke:none;stroke-width:0.992177"
       d="m 646.40306,442.51076 -58.53212,-58.53842 h 83.20899 83.20899 l -0.67533,8.68155 c -3.04677,39.16688 -16.3869,71.82404 -41.20647,100.8751 -3.53365,4.13611 -6.66042,7.52019 -6.94838,7.52019 -0.28796,0 -26.86302,-26.34228 -59.05568,-58.53842 z"
       id="path12"
       transform="scale(0.26458333)" />
    <text
       xml:space="preserve"
       style="font-size:3.175px;writing-mode:lr-tb;direction:ltr;fill:#225500;stroke:none;stroke-width:0.264583"
       x="203.53998"
       y="101.28417"
       id="text12"><tspan
         sodipodi:role="line"
         id="tspan12"
         style="font-style:normal;font-variant:normal;font-weight:bold;font-stretch:normal;font-family:sans-serif;-inkscape-font-specification:'sans-serif Bold';fill:#225500;stroke:none;stroke-width:0.264583"
         x="203.53998"
         y="101.28417">Cosseno</tspan></text>
    <text
       xml:space="preserve"
       style="font-size:3.175px;writing-mode:lr-tb;direction:ltr;fill:#225500;stroke:none;stroke-width:0.264583"
       x="150.77203"
       y="151.2077"
       id="text13"><tspan
         sodipodi:role="line"
         id="tspan13"
         style="font-style:normal;font-variant:normal;font-weight:bold;font-stretch:normal;font-family:sans-serif;-inkscape-font-specification:'sans-serif Bold';fill:#225500;stroke:none;stroke-width:0.264583"
         x="150.77203"
         y="151.2077">Seno</tspan></text>
    <text
       xml:space="preserve"
       style="font-size:3.175px;writing-mode:lr-tb;direction:ltr;fill:#225500;stroke:none;stroke-width:0.264583"
       x="149.67267"
       y="53.806282"
       id="text14"><tspan
         sodipodi:role="line"
         id="tspan14"
         style="fill:#225500;stroke:none;stroke-width:0.264583"
         x="149.67267"
         y="53.806282">- <tspan
   style="font-style:normal;font-variant:normal;font-weight:bold;font-stretch:normal;font-family:sans-serif;-inkscape-font-specification:'sans-serif Bold';fill:#225500"
   id="tspan33">Seno</tspan></tspan></text>
    <text
       xml:space="preserve"
       style="font-size:3.175px;writing-mode:lr-tb;direction:ltr;fill:#225500;stroke:none;stroke-width:0.264583"
       x="91.556274"
       y="102.35465"
       id="text15"><tspan
         sodipodi:role="line"
         id="tspan15"
         style="font-style:normal;font-variant:normal;font-weight:bold;font-stretch:normal;font-family:sans-serif;-inkscape-font-specification:'sans-serif Bold';fill:#225500;stroke:none;stroke-width:0.264583"
         x="91.556274"
         y="102.35465">- Cosseno</tspan></text>
    <text
       xml:space="preserve"
       style="font-size:3.175px;writing-mode:lr-tb;direction:ltr;fill:#d45500;fill-opacity:1;stroke:none;stroke-width:0.264583"
       x="219.60072"
       y="101.31886"
       id="text17"><tspan
         sodipodi:role="line"
         id="tspan17"
         style="fill:#d45500;fill-opacity:1;stroke:none;stroke-width:0.264583"
         x="219.60072"
         y="101.31886">0<tspan
   style="font-size:65%;baseline-shift:super;fill:#d45500"
   id="tspan18">o</tspan></tspan></text>
    <text
       xml:space="preserve"
       style="font-size:3.175px;writing-mode:lr-tb;direction:ltr;fill:#d45500;fill-opacity:1;stroke:none;stroke-width:0.264583"
       x="186.33966"
       y="68.917351"
       id="text19"><tspan
         sodipodi:role="line"
         id="tspan19"
         style="fill:#d45500;stroke-width:0.264583"
         x="186.33966"
         y="68.917351">45<tspan
   style="font-size:65%;baseline-shift:super;fill:#d45500"
   id="tspan20">o</tspan></tspan></text>
    <text
       xml:space="preserve"
       style="font-size:3.175px;writing-mode:lr-tb;direction:ltr;fill:#d45500;fill-opacity:1;stroke:none;stroke-width:0.264583"
       x="152.00768"
       y="49.933132"
       id="text21"><tspan
         sodipodi:role="line"
         id="tspan21"
         style="fill:#d45500;stroke-width:0.264583"
         x="152.00768"
         y="49.933132">90<tspan
   style="font-size:65%;baseline-shift:super;fill:#d45500"
   id="tspan22">o</tspan></tspan></text>
    <text
       xml:space="preserve"
       style="font-size:3.175px;writing-mode:lr-tb;direction:ltr;fill:#d45500;fill-opacity:1;stroke:none;stroke-width:0.264583"
       x="83.244705"
       y="102.38934"
       id="text23"><tspan
         sodipodi:role="line"
         id="tspan23"
         style="fill:#d45500;stroke-width:0.264583"
         x="83.244705"
         y="102.38934">180<tspan
   style="font-size:65%;baseline-shift:super;fill:#d45500"
   id="tspan24">o</tspan></tspan></text>
    <text
       xml:space="preserve"
       style="font-size:3.175px;writing-mode:lr-tb;direction:ltr;fill:#d45500;fill-opacity:1;stroke:none;stroke-width:0.264583"
       x="151.03043"
       y="156.4379"
       id="text25"><tspan
         sodipodi:role="line"
         id="tspan25"
         style="fill:#d45500;stroke-width:0.264583"
         x="151.03043"
         y="156.4379">270<tspan
   style="font-size:65%;baseline-shift:super;fill:#d45500"
   id="tspan26">o</tspan></tspan></text>
    <text
       xml:space="preserve"
       style="font-size:3.175px;writing-mode:lr-tb;direction:ltr;fill:#d45500;fill-opacity:1;stroke:none;stroke-width:0.264583"
       x="116.2185"
       y="68.740295"
       id="text27"><tspan
         sodipodi:role="line"
         id="tspan27"
         style="fill:#d45500;stroke-width:0.264583"
         x="116.2185"
         y="68.740295">135<tspan
   style="font-size:65%;baseline-shift:super;fill:#d45500"
   id="tspan28">o</tspan></tspan></text>
    <text
       xml:space="preserve"
       style="font-size:3.175px;writing-mode:lr-tb;direction:ltr;fill:#d45500;fill-opacity:1;stroke:none;stroke-width:0.264583"
       x="115.21829"
       y="136.06522"
       id="text29"><tspan
         sodipodi:role="line"
         id="tspan29"
         style="fill:#d45500;stroke-width:0.264583"
         x="115.21829"
         y="136.06522">225<tspan
   style="font-size:65%;baseline-shift:super;fill:#d45500"
   id="tspan30">o</tspan></tspan></text>
    <text
       xml:space="preserve"
       style="font-size:3.175px;writing-mode:lr-tb;direction:ltr;fill:#d45500;fill-opacity:1;stroke:none;stroke-width:0.264583"
       x="186.34456"
       y="136.44717"
       id="text31"><tspan
         sodipodi:role="line"
         id="tspan31"
         style="fill:#d45500;stroke-width:0.264583"
         x="186.34456"
         y="136.44717">315<tspan
   style="font-size:65%;baseline-shift:super;fill:#d45500"
   id="tspan32">o</tspan></tspan></text>
  </g>
</svg>
